<mxfile host="app.diagrams.net" agent="Mozilla/5.0 (Windows NT 10.0; Win64; x64) AppleWebKit/537.36 (KHTML, like Gecko) Chrome/133.0.0.0 Safari/537.36" version="26.0.16">
  <diagram id="As31umIxtYYmUo2kWSjC" name="ページ1">
    <mxGraphModel dx="1369" dy="1611" grid="1" gridSize="10" guides="1" tooltips="1" connect="1" arrows="1" fold="1" page="1" pageScale="1" pageWidth="1200" pageHeight="800" math="0" shadow="0">
      <root>
        <mxCell id="0" />
        <mxCell id="1" parent="0" />
        <mxCell id="r2qKvbFkMg-777UX2yl--45" value="&lt;font style=&quot;font-size: 15px;&quot;&gt;&lt;b&gt;Lambda&lt;/b&gt;&lt;/font&gt;" style="sketch=0;points=[[0,0,0],[0.25,0,0],[0.5,0,0],[0.75,0,0],[1,0,0],[0,1,0],[0.25,1,0],[0.5,1,0],[0.75,1,0],[1,1,0],[0,0.25,0],[0,0.5,0],[0,0.75,0],[1,0.25,0],[1,0.5,0],[1,0.75,0]];outlineConnect=0;fontColor=#232F3E;fillColor=#ED7100;strokeColor=#ffffff;dashed=0;verticalLabelPosition=bottom;verticalAlign=top;align=center;html=1;fontSize=12;fontStyle=0;aspect=fixed;shape=mxgraph.aws4.resourceIcon;resIcon=mxgraph.aws4.lambda;" vertex="1" parent="1">
          <mxGeometry x="1158" y="776" width="60" height="60" as="geometry" />
        </mxCell>
        <mxCell id="r2qKvbFkMg-777UX2yl--156" value="&lt;b&gt;&lt;font style=&quot;font-size: 15px; color: rgb(221, 53, 34);&quot;&gt;DR 環境&lt;/font&gt;&lt;/b&gt;" style="fillColor=none;strokeColor=#DD3522;dashed=1;verticalAlign=top;fontStyle=0;fontColor=#5A6C86;whiteSpace=wrap;html=1;strokeWidth=4;" vertex="1" parent="1">
          <mxGeometry x="1369" y="130" width="1151" height="830" as="geometry" />
        </mxCell>
        <mxCell id="r2qKvbFkMg-777UX2yl--101" value="&lt;span style=&quot;font-size: 15px;&quot;&gt;&lt;b&gt;AWS 外部サービス&lt;/b&gt;&lt;/span&gt;" style="fillColor=none;strokeColor=#5A6C86;verticalAlign=top;fontStyle=0;fontColor=#5A6C86;whiteSpace=wrap;html=1;strokeWidth=3;" vertex="1" parent="1">
          <mxGeometry x="754" y="-360" width="486" height="260" as="geometry" />
        </mxCell>
        <mxCell id="r2qKvbFkMg-777UX2yl--90" value="&lt;b&gt;&lt;font style=&quot;font-size: 15px;&quot;&gt;Github&lt;/font&gt;&lt;/b&gt;" style="fillColor=none;strokeColor=#5A6C86;verticalAlign=top;fontStyle=0;fontColor=#5A6C86;whiteSpace=wrap;html=1;strokeWidth=3;" vertex="1" parent="1">
          <mxGeometry x="1445.42" y="-360" width="592.58" height="260" as="geometry" />
        </mxCell>
        <mxCell id="r2qKvbFkMg-777UX2yl--8" value="&lt;b&gt;&lt;font style=&quot;font-size: 15px;&quot;&gt;AWS Cloud&lt;/font&gt;&lt;/b&gt;" style="points=[[0,0],[0.25,0],[0.5,0],[0.75,0],[1,0],[1,0.25],[1,0.5],[1,0.75],[1,1],[0.75,1],[0.5,1],[0.25,1],[0,1],[0,0.75],[0,0.5],[0,0.25]];outlineConnect=0;gradientColor=none;html=1;whiteSpace=wrap;fontSize=12;fontStyle=0;container=0;pointerEvents=0;collapsible=0;recursiveResize=0;shape=mxgraph.aws4.group;grIcon=mxgraph.aws4.group_aws_cloud_alt;strokeColor=#232F3E;fillColor=none;verticalAlign=top;align=left;spacingLeft=30;fontColor=#232F3E;dashed=0;" vertex="1" parent="1">
          <mxGeometry x="240" y="-80" width="2240" height="1000" as="geometry" />
        </mxCell>
        <mxCell id="r2qKvbFkMg-777UX2yl--9" value="&lt;b&gt;&lt;font style=&quot;font-size: 15px;&quot;&gt;Region (ap-northeast-1)&lt;/font&gt;&lt;/b&gt;" style="points=[[0,0],[0.25,0],[0.5,0],[0.75,0],[1,0],[1,0.25],[1,0.5],[1,0.75],[1,1],[0.75,1],[0.5,1],[0.25,1],[0,1],[0,0.75],[0,0.5],[0,0.25]];outlineConnect=0;gradientColor=none;html=1;whiteSpace=wrap;fontSize=12;fontStyle=0;container=0;pointerEvents=0;collapsible=0;recursiveResize=0;shape=mxgraph.aws4.group;grIcon=mxgraph.aws4.group_region;strokeColor=#00A4A6;fillColor=none;verticalAlign=top;align=left;spacingLeft=30;fontColor=#147EBA;dashed=1;" vertex="1" parent="1">
          <mxGeometry x="280" y="160" width="1020" height="720" as="geometry" />
        </mxCell>
        <mxCell id="r2qKvbFkMg-777UX2yl--10" value="&lt;b&gt;&lt;font style=&quot;font-size: 15px;&quot;&gt;VPC&lt;/font&gt;&lt;/b&gt;" style="points=[[0,0],[0.25,0],[0.5,0],[0.75,0],[1,0],[1,0.25],[1,0.5],[1,0.75],[1,1],[0.75,1],[0.5,1],[0.25,1],[0,1],[0,0.75],[0,0.5],[0,0.25]];outlineConnect=0;gradientColor=none;html=1;whiteSpace=wrap;fontSize=12;fontStyle=0;container=0;pointerEvents=0;collapsible=0;recursiveResize=0;shape=mxgraph.aws4.group;grIcon=mxgraph.aws4.group_vpc2;strokeColor=#8C4FFF;fillColor=none;verticalAlign=top;align=left;spacingLeft=30;fontColor=#AAB7B8;dashed=0;" vertex="1" parent="1">
          <mxGeometry x="320" y="200" width="560" height="600" as="geometry" />
        </mxCell>
        <mxCell id="r2qKvbFkMg-777UX2yl--11" value="&lt;b&gt;&lt;font style=&quot;font-size: 15px;&quot;&gt;Public subnet&lt;/font&gt;&lt;/b&gt;" style="points=[[0,0],[0.25,0],[0.5,0],[0.75,0],[1,0],[1,0.25],[1,0.5],[1,0.75],[1,1],[0.75,1],[0.5,1],[0.25,1],[0,1],[0,0.75],[0,0.5],[0,0.25]];outlineConnect=0;gradientColor=none;html=1;whiteSpace=wrap;fontSize=12;fontStyle=0;container=0;pointerEvents=0;collapsible=0;recursiveResize=0;shape=mxgraph.aws4.group;grIcon=mxgraph.aws4.group_security_group;grStroke=0;strokeColor=#7AA116;fillColor=#F2F6E8;verticalAlign=top;align=left;spacingLeft=30;fontColor=#248814;dashed=0;" vertex="1" parent="1">
          <mxGeometry x="360" y="240" width="440" height="160" as="geometry" />
        </mxCell>
        <mxCell id="r2qKvbFkMg-777UX2yl--13" value="&lt;b&gt;&lt;font style=&quot;font-size: 15px;&quot;&gt;Private subnet&lt;/font&gt;&lt;/b&gt;" style="points=[[0,0],[0.25,0],[0.5,0],[0.75,0],[1,0],[1,0.25],[1,0.5],[1,0.75],[1,1],[0.75,1],[0.5,1],[0.25,1],[0,1],[0,0.75],[0,0.5],[0,0.25]];outlineConnect=0;gradientColor=none;html=1;whiteSpace=wrap;fontSize=12;fontStyle=0;container=0;pointerEvents=0;collapsible=0;recursiveResize=0;shape=mxgraph.aws4.group;grIcon=mxgraph.aws4.group_security_group;grStroke=0;strokeColor=#00A4A6;fillColor=#E6F6F7;verticalAlign=top;align=left;spacingLeft=30;fontColor=#147EBA;dashed=0;" vertex="1" parent="1">
          <mxGeometry x="360" y="440" width="440" height="320" as="geometry" />
        </mxCell>
        <mxCell id="r2qKvbFkMg-777UX2yl--15" value="&lt;b&gt;&lt;font style=&quot;font-size: 15px;&quot;&gt;ECS Fargate&lt;/font&gt;&lt;/b&gt;" style="fillColor=none;strokeColor=#FF8000;verticalAlign=top;fontStyle=0;fontColor=#DD3522;whiteSpace=wrap;html=1;" vertex="1" parent="1">
          <mxGeometry x="384" y="491" width="396" height="229" as="geometry" />
        </mxCell>
        <mxCell id="r2qKvbFkMg-777UX2yl--28" style="edgeStyle=orthogonalEdgeStyle;rounded=0;orthogonalLoop=1;jettySize=auto;html=1;fillColor=#d5e8d4;strokeColor=#82b366;strokeWidth=4;" edge="1" parent="1" source="r2qKvbFkMg-777UX2yl--15" target="r2qKvbFkMg-777UX2yl--27">
          <mxGeometry relative="1" as="geometry">
            <Array as="points">
              <mxPoint x="790" y="565" />
              <mxPoint x="790" y="565" />
            </Array>
          </mxGeometry>
        </mxCell>
        <mxCell id="r2qKvbFkMg-777UX2yl--25" value="" style="edgeStyle=orthogonalEdgeStyle;rounded=0;orthogonalLoop=1;jettySize=auto;html=1;strokeWidth=4;fillColor=#dae8fc;strokeColor=#6c8ebf;" edge="1" parent="1" target="r2qKvbFkMg-777UX2yl--16">
          <mxGeometry relative="1" as="geometry">
            <mxPoint x="530" y="380" as="sourcePoint" />
            <Array as="points">
              <mxPoint x="530" y="380" />
              <mxPoint x="530" y="470" />
              <mxPoint x="449" y="470" />
            </Array>
          </mxGeometry>
        </mxCell>
        <mxCell id="r2qKvbFkMg-777UX2yl--169" style="edgeStyle=orthogonalEdgeStyle;rounded=0;orthogonalLoop=1;jettySize=auto;html=1;strokeWidth=4;" edge="1" parent="1" target="r2qKvbFkMg-777UX2yl--17">
          <mxGeometry relative="1" as="geometry">
            <mxPoint x="550" y="390" as="sourcePoint" />
            <Array as="points">
              <mxPoint x="550" y="480" />
              <mxPoint x="531" y="480" />
            </Array>
          </mxGeometry>
        </mxCell>
        <mxCell id="r2qKvbFkMg-777UX2yl--18" value="&lt;b&gt;&lt;font style=&quot;font-size: 15px;&quot;&gt;ALB&lt;/font&gt;&lt;/b&gt;" style="sketch=0;points=[[0,0,0],[0.25,0,0],[0.5,0,0],[0.75,0,0],[1,0,0],[0,1,0],[0.25,1,0],[0.5,1,0],[0.75,1,0],[1,1,0],[0,0.25,0],[0,0.5,0],[0,0.75,0],[1,0.25,0],[1,0.5,0],[1,0.75,0]];outlineConnect=0;fontColor=#232F3E;fillColor=#8C4FFF;strokeColor=#ffffff;dashed=0;verticalLabelPosition=bottom;verticalAlign=top;align=center;html=1;fontSize=12;fontStyle=0;aspect=fixed;shape=mxgraph.aws4.resourceIcon;resIcon=mxgraph.aws4.elastic_load_balancing;" vertex="1" parent="1">
          <mxGeometry x="507" y="290" width="60" height="60" as="geometry" />
        </mxCell>
        <mxCell id="r2qKvbFkMg-777UX2yl--20" value="&lt;b&gt;&lt;font style=&quot;font-size: 15px;&quot;&gt;S3&lt;/font&gt;&lt;/b&gt;" style="sketch=0;points=[[0,0,0],[0.25,0,0],[0.5,0,0],[0.75,0,0],[1,0,0],[0,1,0],[0.25,1,0],[0.5,1,0],[0.75,1,0],[1,1,0],[0,0.25,0],[0,0.5,0],[0,0.75,0],[1,0.25,0],[1,0.5,0],[1,0.75,0]];outlineConnect=0;fontColor=#232F3E;fillColor=#7AA116;strokeColor=#ffffff;dashed=0;verticalLabelPosition=bottom;verticalAlign=top;align=center;html=1;fontSize=12;fontStyle=0;aspect=fixed;shape=mxgraph.aws4.resourceIcon;resIcon=mxgraph.aws4.s3;" vertex="1" parent="1">
          <mxGeometry x="1158" y="277" width="60" height="60" as="geometry" />
        </mxCell>
        <mxCell id="r2qKvbFkMg-777UX2yl--168" style="edgeStyle=orthogonalEdgeStyle;rounded=0;orthogonalLoop=1;jettySize=auto;html=1;strokeWidth=4;" edge="1" parent="1" source="r2qKvbFkMg-777UX2yl--21" target="r2qKvbFkMg-777UX2yl--18">
          <mxGeometry relative="1" as="geometry">
            <Array as="points">
              <mxPoint x="550" y="10" />
            </Array>
          </mxGeometry>
        </mxCell>
        <mxCell id="r2qKvbFkMg-777UX2yl--21" value="&lt;b&gt;&lt;font style=&quot;font-size: 15px;&quot;&gt;Route53&lt;/font&gt;&lt;/b&gt;" style="sketch=0;points=[[0,0,0],[0.25,0,0],[0.5,0,0],[0.75,0,0],[1,0,0],[0,1,0],[0.25,1,0],[0.5,1,0],[0.75,1,0],[1,1,0],[0,0.25,0],[0,0.5,0],[0,0.75,0],[1,0.25,0],[1,0.5,0],[1,0.75,0]];outlineConnect=0;fontColor=#232F3E;fillColor=#8C4FFF;strokeColor=#ffffff;dashed=0;verticalLabelPosition=bottom;verticalAlign=top;align=center;html=1;fontSize=12;fontStyle=0;aspect=fixed;shape=mxgraph.aws4.resourceIcon;resIcon=mxgraph.aws4.route_53;" vertex="1" parent="1">
          <mxGeometry x="654" y="-40" width="60" height="60" as="geometry" />
        </mxCell>
        <mxCell id="r2qKvbFkMg-777UX2yl--23" value="&lt;font style=&quot;font-size: 15px;&quot;&gt;&lt;b&gt;OpenSearch&lt;/b&gt;&lt;/font&gt;" style="sketch=0;points=[[0,0,0],[0.25,0,0],[0.5,0,0],[0.75,0,0],[1,0,0],[0,1,0],[0.25,1,0],[0.5,1,0],[0.75,1,0],[1,1,0],[0,0.25,0],[0,0.5,0],[0,0.75,0],[1,0.25,0],[1,0.5,0],[1,0.75,0]];outlineConnect=0;fontColor=#232F3E;fillColor=#8C4FFF;strokeColor=#ffffff;dashed=0;verticalLabelPosition=bottom;verticalAlign=top;align=center;html=1;fontSize=12;fontStyle=0;aspect=fixed;shape=mxgraph.aws4.resourceIcon;resIcon=mxgraph.aws4.elasticsearch_service;" vertex="1" parent="1">
          <mxGeometry x="1158" y="400" width="60" height="60" as="geometry" />
        </mxCell>
        <mxCell id="r2qKvbFkMg-777UX2yl--24" value="&lt;font style=&quot;font-size: 15px;&quot;&gt;CloudFront&lt;/font&gt;" style="sketch=0;points=[[0,0,0],[0.25,0,0],[0.5,0,0],[0.75,0,0],[1,0,0],[0,1,0],[0.25,1,0],[0.5,1,0],[0.75,1,0],[1,1,0],[0,0.25,0],[0,0.5,0],[0,0.75,0],[1,0.25,0],[1,0.5,0],[1,0.75,0]];outlineConnect=0;fontColor=#232F3E;fillColor=#8C4FFF;strokeColor=#ffffff;dashed=0;verticalLabelPosition=bottom;verticalAlign=top;align=center;html=1;fontSize=12;fontStyle=0;aspect=fixed;shape=mxgraph.aws4.resourceIcon;resIcon=mxgraph.aws4.cloudfront;" vertex="1" parent="1">
          <mxGeometry x="1158" y="60" width="60" height="60" as="geometry" />
        </mxCell>
        <mxCell id="r2qKvbFkMg-777UX2yl--26" value="&lt;font style=&quot;font-size: 15px;&quot;&gt;&lt;b&gt;ECR&lt;/b&gt;&lt;/font&gt;" style="sketch=0;points=[[0,0,0],[0.25,0,0],[0.5,0,0],[0.75,0,0],[1,0,0],[0,1,0],[0.25,1,0],[0.5,1,0],[0.75,1,0],[1,1,0],[0,0.25,0],[0,0.5,0],[0,0.75,0],[1,0.25,0],[1,0.5,0],[1,0.75,0]];outlineConnect=0;fontColor=#232F3E;fillColor=#ED7100;strokeColor=#ffffff;dashed=0;verticalLabelPosition=bottom;verticalAlign=top;align=center;html=1;fontSize=12;fontStyle=0;aspect=fixed;shape=mxgraph.aws4.resourceIcon;resIcon=mxgraph.aws4.ecr;" vertex="1" parent="1">
          <mxGeometry x="1158" y="535" width="60" height="60" as="geometry" />
        </mxCell>
        <mxCell id="r2qKvbFkMg-777UX2yl--27" value="" style="sketch=0;outlineConnect=0;fontColor=#232F3E;gradientColor=none;fillColor=#8C4FFF;strokeColor=none;dashed=0;verticalLabelPosition=bottom;verticalAlign=top;align=center;html=1;fontSize=12;fontStyle=0;aspect=fixed;pointerEvents=1;shape=mxgraph.aws4.endpoints;" vertex="1" parent="1">
          <mxGeometry x="848" y="535" width="60" height="60" as="geometry" />
        </mxCell>
        <mxCell id="r2qKvbFkMg-777UX2yl--29" style="edgeStyle=orthogonalEdgeStyle;rounded=0;orthogonalLoop=1;jettySize=auto;html=1;entryX=0;entryY=0.5;entryDx=0;entryDy=0;entryPerimeter=0;fillColor=#d5e8d4;strokeColor=#82b366;strokeWidth=4;" edge="1" parent="1" source="r2qKvbFkMg-777UX2yl--27" target="r2qKvbFkMg-777UX2yl--42">
          <mxGeometry relative="1" as="geometry" />
        </mxCell>
        <mxCell id="r2qKvbFkMg-777UX2yl--30" style="edgeStyle=orthogonalEdgeStyle;rounded=0;orthogonalLoop=1;jettySize=auto;html=1;entryX=0;entryY=0.5;entryDx=0;entryDy=0;entryPerimeter=0;fillColor=#d5e8d4;strokeColor=#82b366;strokeWidth=4;" edge="1" parent="1" source="r2qKvbFkMg-777UX2yl--27" target="r2qKvbFkMg-777UX2yl--26">
          <mxGeometry relative="1" as="geometry">
            <Array as="points">
              <mxPoint x="940" y="565" />
              <mxPoint x="940" y="565" />
            </Array>
          </mxGeometry>
        </mxCell>
        <mxCell id="r2qKvbFkMg-777UX2yl--31" style="edgeStyle=orthogonalEdgeStyle;rounded=0;orthogonalLoop=1;jettySize=auto;html=1;entryX=0.5;entryY=0;entryDx=0;entryDy=0;entryPerimeter=0;fillColor=#dae8fc;strokeColor=#6c8ebf;strokeWidth=4;" edge="1" parent="1" source="r2qKvbFkMg-777UX2yl--21" target="r2qKvbFkMg-777UX2yl--18">
          <mxGeometry relative="1" as="geometry" />
        </mxCell>
        <mxCell id="r2qKvbFkMg-777UX2yl--32" style="edgeStyle=orthogonalEdgeStyle;rounded=0;orthogonalLoop=1;jettySize=auto;html=1;entryX=0;entryY=0.5;entryDx=0;entryDy=0;entryPerimeter=0;fillColor=#dae8fc;strokeColor=#6c8ebf;strokeWidth=4;" edge="1" parent="1" source="r2qKvbFkMg-777UX2yl--21" target="r2qKvbFkMg-777UX2yl--24">
          <mxGeometry relative="1" as="geometry" />
        </mxCell>
        <mxCell id="r2qKvbFkMg-777UX2yl--33" style="edgeStyle=orthogonalEdgeStyle;rounded=0;orthogonalLoop=1;jettySize=auto;html=1;entryX=0.5;entryY=0;entryDx=0;entryDy=0;entryPerimeter=0;fillColor=#dae8fc;strokeColor=#6c8ebf;strokeWidth=4;" edge="1" parent="1" target="r2qKvbFkMg-777UX2yl--20">
          <mxGeometry relative="1" as="geometry">
            <mxPoint x="1188" y="170" as="sourcePoint" />
            <Array as="points">
              <mxPoint x="1188" y="210" />
              <mxPoint x="1188" y="210" />
            </Array>
          </mxGeometry>
        </mxCell>
        <mxCell id="r2qKvbFkMg-777UX2yl--49" value="&lt;font style=&quot;font-size: 20px;&quot;&gt;&lt;b&gt;メンテナンスページ&lt;/b&gt;&lt;/font&gt;" style="edgeLabel;html=1;align=center;verticalAlign=middle;resizable=0;points=[];" vertex="1" connectable="0" parent="r2qKvbFkMg-777UX2yl--33">
          <mxGeometry x="0.1153" y="-1" relative="1" as="geometry">
            <mxPoint as="offset" />
          </mxGeometry>
        </mxCell>
        <mxCell id="r2qKvbFkMg-777UX2yl--36" value="" style="shape=actor;whiteSpace=wrap;html=1;" vertex="1" parent="1">
          <mxGeometry x="649" y="-575" width="70" height="90" as="geometry" />
        </mxCell>
        <mxCell id="r2qKvbFkMg-777UX2yl--37" value="&lt;font style=&quot;font-size: 20px;&quot;&gt;&lt;b&gt;クライアント&lt;/b&gt;&lt;/font&gt;" style="text;html=1;align=center;verticalAlign=middle;resizable=0;points=[];autosize=1;strokeColor=none;fillColor=none;" vertex="1" parent="1">
          <mxGeometry x="614" y="-480" width="140" height="40" as="geometry" />
        </mxCell>
        <mxCell id="r2qKvbFkMg-777UX2yl--40" style="edgeStyle=orthogonalEdgeStyle;rounded=0;orthogonalLoop=1;jettySize=auto;html=1;entryX=0.5;entryY=0;entryDx=0;entryDy=0;entryPerimeter=0;fillColor=#dae8fc;strokeColor=#6c8ebf;strokeWidth=4;exitX=0.493;exitY=1.025;exitDx=0;exitDy=0;exitPerimeter=0;" edge="1" parent="1" source="r2qKvbFkMg-777UX2yl--37" target="r2qKvbFkMg-777UX2yl--21">
          <mxGeometry relative="1" as="geometry">
            <mxPoint x="684" y="-225" as="sourcePoint" />
          </mxGeometry>
        </mxCell>
        <mxCell id="r2qKvbFkMg-777UX2yl--42" value="&lt;font style=&quot;font-size: 15px;&quot;&gt;&lt;b&gt;DynamoDB&lt;/b&gt;&lt;/font&gt;" style="sketch=0;points=[[0,0,0],[0.25,0,0],[0.5,0,0],[0.75,0,0],[1,0,0],[0,1,0],[0.25,1,0],[0.5,1,0],[0.75,1,0],[1,1,0],[0,0.25,0],[0,0.5,0],[0,0.75,0],[1,0.25,0],[1,0.5,0],[1,0.75,0]];outlineConnect=0;fontColor=#232F3E;fillColor=#C925D1;strokeColor=#ffffff;dashed=0;verticalLabelPosition=bottom;verticalAlign=top;align=center;html=1;fontSize=12;fontStyle=0;aspect=fixed;shape=mxgraph.aws4.resourceIcon;resIcon=mxgraph.aws4.dynamodb;" vertex="1" parent="1">
          <mxGeometry x="999" y="400" width="60" height="60" as="geometry" />
        </mxCell>
        <mxCell id="r2qKvbFkMg-777UX2yl--43" style="edgeStyle=orthogonalEdgeStyle;rounded=0;orthogonalLoop=1;jettySize=auto;html=1;entryX=0;entryY=0.5;entryDx=0;entryDy=0;entryPerimeter=0;fillColor=#d5e8d4;strokeColor=#82b366;strokeWidth=4;" edge="1" parent="1" source="r2qKvbFkMg-777UX2yl--27" target="r2qKvbFkMg-777UX2yl--23">
          <mxGeometry relative="1" as="geometry">
            <Array as="points">
              <mxPoint x="1100" y="565" />
              <mxPoint x="1100" y="430" />
            </Array>
          </mxGeometry>
        </mxCell>
        <mxCell id="r2qKvbFkMg-777UX2yl--46" value="&lt;font style=&quot;font-size: 15px;&quot;&gt;&lt;b&gt;Cognito&lt;/b&gt;&lt;/font&gt;" style="sketch=0;points=[[0,0,0],[0.25,0,0],[0.5,0,0],[0.75,0,0],[1,0,0],[0,1,0],[0.25,1,0],[0.5,1,0],[0.75,1,0],[1,1,0],[0,0.25,0],[0,0.5,0],[0,0.75,0],[1,0.25,0],[1,0.5,0],[1,0.75,0]];outlineConnect=0;fontColor=#232F3E;fillColor=#DD344C;strokeColor=#ffffff;dashed=0;verticalLabelPosition=bottom;verticalAlign=top;align=center;html=1;fontSize=12;fontStyle=0;aspect=fixed;shape=mxgraph.aws4.resourceIcon;resIcon=mxgraph.aws4.cognito;" vertex="1" parent="1">
          <mxGeometry x="997" y="640" width="59" height="59" as="geometry" />
        </mxCell>
        <mxCell id="r2qKvbFkMg-777UX2yl--47" value="&lt;font style=&quot;font-size: 15px;&quot;&gt;&lt;b&gt;Shield Advanced&lt;/b&gt;&lt;/font&gt;" style="sketch=0;points=[[0,0,0],[0.25,0,0],[0.5,0,0],[0.75,0,0],[1,0,0],[0,1,0],[0.25,1,0],[0.5,1,0],[0.75,1,0],[1,1,0],[0,0.25,0],[0,0.5,0],[0,0.75,0],[1,0.25,0],[1,0.5,0],[1,0.75,0]];outlineConnect=0;fontColor=#232F3E;fillColor=#DD344C;strokeColor=#ffffff;dashed=0;verticalLabelPosition=bottom;verticalAlign=top;align=center;html=1;fontSize=12;fontStyle=0;aspect=fixed;shape=mxgraph.aws4.resourceIcon;resIcon=mxgraph.aws4.shield;" vertex="1" parent="1">
          <mxGeometry x="1441" y="-40" width="60" height="60" as="geometry" />
        </mxCell>
        <mxCell id="r2qKvbFkMg-777UX2yl--48" value="" style="sketch=0;points=[[0,0,0],[0.25,0,0],[0.5,0,0],[0.75,0,0],[1,0,0],[0,1,0],[0.25,1,0],[0.5,1,0],[0.75,1,0],[1,1,0],[0,0.25,0],[0,0.5,0],[0,0.75,0],[1,0.25,0],[1,0.5,0],[1,0.75,0]];outlineConnect=0;fontColor=#232F3E;fillColor=#DD344C;strokeColor=#ffffff;dashed=0;verticalLabelPosition=bottom;verticalAlign=top;align=center;html=1;fontSize=12;fontStyle=0;aspect=fixed;shape=mxgraph.aws4.resourceIcon;resIcon=mxgraph.aws4.shield;" vertex="1" parent="1">
          <mxGeometry x="550" y="277" width="30" height="30" as="geometry" />
        </mxCell>
        <mxCell id="r2qKvbFkMg-777UX2yl--80" value="&lt;b&gt;&lt;font style=&quot;font-size: 15px;&quot;&gt;GuardDuty&lt;/font&gt;&lt;/b&gt;" style="sketch=0;points=[[0,0,0],[0.25,0,0],[0.5,0,0],[0.75,0,0],[1,0,0],[0,1,0],[0.25,1,0],[0.5,1,0],[0.75,1,0],[1,1,0],[0,0.25,0],[0,0.5,0],[0,0.75,0],[1,0.25,0],[1,0.5,0],[1,0.75,0]];outlineConnect=0;fontColor=#232F3E;fillColor=#DD344C;strokeColor=#ffffff;dashed=0;verticalLabelPosition=bottom;verticalAlign=top;align=center;html=1;fontSize=12;fontStyle=0;aspect=fixed;shape=mxgraph.aws4.resourceIcon;resIcon=mxgraph.aws4.guardduty;" vertex="1" parent="1">
          <mxGeometry x="1559" y="-40" width="60" height="60" as="geometry" />
        </mxCell>
        <mxCell id="r2qKvbFkMg-777UX2yl--81" value="" style="shape=actor;whiteSpace=wrap;html=1;" vertex="1" parent="1">
          <mxGeometry x="1456.21" y="-575" width="70" height="90" as="geometry" />
        </mxCell>
        <mxCell id="r2qKvbFkMg-777UX2yl--85" style="edgeStyle=orthogonalEdgeStyle;rounded=0;orthogonalLoop=1;jettySize=auto;html=1;entryX=0.5;entryY=0;entryDx=0;entryDy=0;strokeWidth=4;" edge="1" parent="1" source="r2qKvbFkMg-777UX2yl--82" target="r2qKvbFkMg-777UX2yl--83">
          <mxGeometry relative="1" as="geometry" />
        </mxCell>
        <mxCell id="r2qKvbFkMg-777UX2yl--82" value="&lt;span style=&quot;font-size: 20px;&quot;&gt;&lt;b&gt;管理者&lt;/b&gt;&lt;/span&gt;" style="text;html=1;align=center;verticalAlign=middle;resizable=0;points=[];autosize=1;strokeColor=none;fillColor=none;" vertex="1" parent="1">
          <mxGeometry x="1450.21" y="-485" width="80" height="40" as="geometry" />
        </mxCell>
        <mxCell id="r2qKvbFkMg-777UX2yl--83" value="" style="shape=image;verticalLabelPosition=bottom;labelBackgroundColor=default;verticalAlign=top;aspect=fixed;imageAspect=0;image=https://crowdworks.jp/times/wp-content/uploads/2023/01/AdobeStock_385949189-1.jpeg;" vertex="1" parent="1">
          <mxGeometry x="1445.42" y="-365" width="90.7" height="65" as="geometry" />
        </mxCell>
        <mxCell id="r2qKvbFkMg-777UX2yl--84" value="" style="shape=image;verticalLabelPosition=bottom;labelBackgroundColor=default;verticalAlign=top;aspect=fixed;imageAspect=0;image=https://knowledge.sakura.ad.jp/wp-content/uploads/2020/01/11450_t.png;" vertex="1" parent="1">
          <mxGeometry x="1518" y="-242" width="126.67" height="95" as="geometry" />
        </mxCell>
        <mxCell id="r2qKvbFkMg-777UX2yl--91" value="Terraform" style="shape=image;verticalLabelPosition=bottom;labelBackgroundColor=default;verticalAlign=top;aspect=fixed;imageAspect=0;image=https://img.icons8.com/color/512/terraform.png;fontStyle=1;fontSize=15;" vertex="1" parent="1">
          <mxGeometry x="1868" y="-240" width="60" height="60" as="geometry" />
        </mxCell>
        <mxCell id="r2qKvbFkMg-777UX2yl--92" value="&lt;b&gt;&lt;font style=&quot;font-size: 15px;&quot;&gt;Container Image&lt;/font&gt;&lt;/b&gt;" style="sketch=0;outlineConnect=0;fontColor=#232F3E;gradientColor=none;fillColor=#ED7100;strokeColor=none;dashed=0;verticalLabelPosition=bottom;verticalAlign=top;align=center;html=1;fontSize=12;fontStyle=0;aspect=fixed;pointerEvents=1;shape=mxgraph.aws4.container_registry_image;" vertex="1" parent="1">
          <mxGeometry x="1719" y="-242" width="62" height="62" as="geometry" />
        </mxCell>
        <mxCell id="r2qKvbFkMg-777UX2yl--93" value="" style="shape=image;verticalLabelPosition=bottom;labelBackgroundColor=default;verticalAlign=top;aspect=fixed;imageAspect=0;image=https://upload.wikimedia.org/wikipedia/commons/thumb/b/ba/Stripe_Logo%2C_revised_2016.svg/2560px-Stripe_Logo%2C_revised_2016.svg.png;" vertex="1" parent="1">
          <mxGeometry x="840" y="-236" width="120" height="50" as="geometry" />
        </mxCell>
        <mxCell id="r2qKvbFkMg-777UX2yl--94" value="&lt;b&gt;&lt;font style=&quot;font-size: 15px;&quot;&gt;CodeDeploy&lt;/font&gt;&lt;/b&gt;" style="sketch=0;points=[[0,0,0],[0.25,0,0],[0.5,0,0],[0.75,0,0],[1,0,0],[0,1,0],[0.25,1,0],[0.5,1,0],[0.75,1,0],[1,1,0],[0,0.25,0],[0,0.5,0],[0,0.75,0],[1,0.25,0],[1,0.5,0],[1,0.75,0]];outlineConnect=0;fontColor=#232F3E;fillColor=#C925D1;strokeColor=#ffffff;dashed=0;verticalLabelPosition=bottom;verticalAlign=top;align=center;html=1;fontSize=12;fontStyle=0;aspect=fixed;shape=mxgraph.aws4.resourceIcon;resIcon=mxgraph.aws4.codedeploy;" vertex="1" parent="1">
          <mxGeometry x="1158" y="640" width="60" height="60" as="geometry" />
        </mxCell>
        <mxCell id="r2qKvbFkMg-777UX2yl--95" value="" style="sketch=0;points=[[0,0,0],[0.25,0,0],[0.5,0,0],[0.75,0,0],[1,0,0],[0,1,0],[0.25,1,0],[0.5,1,0],[0.75,1,0],[1,1,0],[0,0.25,0],[0,0.5,0],[0,0.75,0],[1,0.25,0],[1,0.5,0],[1,0.75,0]];outlineConnect=0;fontColor=#232F3E;fillColor=#DD344C;strokeColor=#ffffff;dashed=0;verticalLabelPosition=bottom;verticalAlign=top;align=center;html=1;fontSize=12;fontStyle=0;aspect=fixed;shape=mxgraph.aws4.resourceIcon;resIcon=mxgraph.aws4.shield;" vertex="1" parent="1">
          <mxGeometry x="1198" y="51" width="30" height="30" as="geometry" />
        </mxCell>
        <mxCell id="r2qKvbFkMg-777UX2yl--96" value="&lt;b&gt;&lt;font style=&quot;font-size: 15px;&quot;&gt;AWS WAF&lt;/font&gt;&lt;/b&gt;" style="sketch=0;points=[[0,0,0],[0.25,0,0],[0.5,0,0],[0.75,0,0],[1,0,0],[0,1,0],[0.25,1,0],[0.5,1,0],[0.75,1,0],[1,1,0],[0,0.25,0],[0,0.5,0],[0,0.75,0],[1,0.25,0],[1,0.5,0],[1,0.75,0]];outlineConnect=0;fontColor=#232F3E;fillColor=#DD344C;strokeColor=#ffffff;dashed=0;verticalLabelPosition=bottom;verticalAlign=top;align=center;html=1;fontSize=12;fontStyle=0;aspect=fixed;shape=mxgraph.aws4.resourceIcon;resIcon=mxgraph.aws4.waf;" vertex="1" parent="1">
          <mxGeometry x="512" y="41" width="60" height="60" as="geometry" />
        </mxCell>
        <mxCell id="r2qKvbFkMg-777UX2yl--170" style="edgeStyle=orthogonalEdgeStyle;rounded=0;orthogonalLoop=1;jettySize=auto;html=1;entryX=0;entryY=0.75;entryDx=0;entryDy=0;fillColor=#d5e8d4;strokeColor=#82b366;strokeWidth=4;" edge="1" parent="1" source="r2qKvbFkMg-777UX2yl--99" target="r2qKvbFkMg-777UX2yl--81">
          <mxGeometry relative="1" as="geometry">
            <Array as="points">
              <mxPoint x="1280" y="-211" />
              <mxPoint x="1280" y="-507" />
            </Array>
          </mxGeometry>
        </mxCell>
        <mxCell id="r2qKvbFkMg-777UX2yl--99" value="" style="shape=image;verticalLabelPosition=bottom;labelBackgroundColor=default;verticalAlign=top;aspect=fixed;imageAspect=0;image=https://newrelic.com/themes/custom/erno/assets/mediakit/new_relic_logo_vertical.png;" vertex="1" parent="1">
          <mxGeometry x="1040" y="-243.5" width="127.04" height="65" as="geometry" />
        </mxCell>
        <mxCell id="r2qKvbFkMg-777UX2yl--102" style="edgeStyle=orthogonalEdgeStyle;rounded=0;orthogonalLoop=1;jettySize=auto;html=1;entryX=1;entryY=0.5;entryDx=0;entryDy=0;entryPerimeter=0;strokeWidth=4;" edge="1" parent="1" source="r2qKvbFkMg-777UX2yl--90" target="r2qKvbFkMg-777UX2yl--26">
          <mxGeometry relative="1" as="geometry">
            <Array as="points">
              <mxPoint x="1320" y="-230" />
              <mxPoint x="1320" y="565" />
            </Array>
          </mxGeometry>
        </mxCell>
        <mxCell id="r2qKvbFkMg-777UX2yl--103" style="edgeStyle=orthogonalEdgeStyle;rounded=0;orthogonalLoop=1;jettySize=auto;html=1;entryX=1;entryY=0.5;entryDx=0;entryDy=0;entryPerimeter=0;strokeWidth=4;" edge="1" parent="1" source="r2qKvbFkMg-777UX2yl--90" target="r2qKvbFkMg-777UX2yl--94">
          <mxGeometry relative="1" as="geometry">
            <Array as="points">
              <mxPoint x="1320" y="-230" />
              <mxPoint x="1320" y="670" />
            </Array>
          </mxGeometry>
        </mxCell>
        <mxCell id="r2qKvbFkMg-777UX2yl--113" style="edgeStyle=orthogonalEdgeStyle;rounded=0;orthogonalLoop=1;jettySize=auto;html=1;fillColor=#d5e8d4;strokeColor=#82b366;strokeWidth=4;" edge="1" parent="1" source="r2qKvbFkMg-777UX2yl--104" target="r2qKvbFkMg-777UX2yl--101">
          <mxGeometry relative="1" as="geometry">
            <Array as="points">
              <mxPoint x="695" y="140" />
              <mxPoint x="997" y="140" />
            </Array>
          </mxGeometry>
        </mxCell>
        <mxCell id="r2qKvbFkMg-777UX2yl--104" value="&lt;b&gt;&lt;font style=&quot;font-size: 15px;&quot;&gt;Nat Gateway&lt;/font&gt;&lt;/b&gt;" style="outlineConnect=0;dashed=0;verticalLabelPosition=bottom;verticalAlign=top;align=center;html=1;shape=mxgraph.aws3.vpc_nat_gateway;fillColor=#F58534;gradientColor=none;" vertex="1" parent="1">
          <mxGeometry x="660" y="284" width="69" height="72" as="geometry" />
        </mxCell>
        <mxCell id="r2qKvbFkMg-777UX2yl--105" style="edgeStyle=orthogonalEdgeStyle;rounded=0;orthogonalLoop=1;jettySize=auto;html=1;entryX=0;entryY=0.5;entryDx=0;entryDy=0;entryPerimeter=0;fillColor=#d5e8d4;strokeColor=#82b366;strokeWidth=4;" edge="1" parent="1" source="r2qKvbFkMg-777UX2yl--27" target="r2qKvbFkMg-777UX2yl--46">
          <mxGeometry relative="1" as="geometry" />
        </mxCell>
        <mxCell id="r2qKvbFkMg-777UX2yl--14" value="" style="sketch=0;points=[[0,0,0],[0.25,0,0],[0.5,0,0],[0.75,0,0],[1,0,0],[0,1,0],[0.25,1,0],[0.5,1,0],[0.75,1,0],[1,1,0],[0,0.25,0],[0,0.5,0],[0,0.75,0],[1,0.25,0],[1,0.5,0],[1,0.75,0]];outlineConnect=0;fontColor=#232F3E;fillColor=#ED7100;strokeColor=#ffffff;dashed=0;verticalLabelPosition=bottom;verticalAlign=top;align=center;html=1;fontSize=12;fontStyle=0;aspect=fixed;shape=mxgraph.aws4.resourceIcon;resIcon=mxgraph.aws4.ecs;" vertex="1" parent="1">
          <mxGeometry x="385" y="490" width="40" height="40" as="geometry" />
        </mxCell>
        <mxCell id="r2qKvbFkMg-777UX2yl--107" value="&lt;b&gt;&lt;font style=&quot;font-size: 15px; color: rgb(0, 0, 255);&quot;&gt;Blue&lt;/font&gt;&lt;/b&gt;" style="fillColor=none;strokeColor=#0000FF;verticalAlign=top;fontStyle=0;fontColor=#5A6C86;whiteSpace=wrap;html=1;" vertex="1" parent="1">
          <mxGeometry x="409" y="560" width="171" height="130" as="geometry" />
        </mxCell>
        <mxCell id="r2qKvbFkMg-777UX2yl--17" value="管理用" style="sketch=0;outlineConnect=0;fontColor=#232F3E;gradientColor=none;fillColor=#ED7100;strokeColor=none;dashed=0;verticalLabelPosition=bottom;verticalAlign=top;align=center;html=1;fontSize=12;fontStyle=0;aspect=fixed;pointerEvents=1;shape=mxgraph.aws4.container_1;" vertex="1" parent="1">
          <mxGeometry x="507" y="609.5" width="48" height="31" as="geometry" />
        </mxCell>
        <mxCell id="r2qKvbFkMg-777UX2yl--16" value="メインサイト" style="sketch=0;outlineConnect=0;fontColor=#232F3E;gradientColor=none;fillColor=#ED7100;strokeColor=none;dashed=0;verticalLabelPosition=bottom;verticalAlign=top;align=center;html=1;fontSize=12;fontStyle=0;aspect=fixed;pointerEvents=1;shape=mxgraph.aws4.container_1;" vertex="1" parent="1">
          <mxGeometry x="425" y="609.5" width="48" height="31" as="geometry" />
        </mxCell>
        <mxCell id="r2qKvbFkMg-777UX2yl--108" value="&lt;b&gt;&lt;font style=&quot;font-size: 15px; color: rgb(0, 255, 0);&quot;&gt;Green&lt;/font&gt;&lt;/b&gt;" style="fillColor=none;strokeColor=#00FF00;dashed=1;verticalAlign=top;fontStyle=0;fontColor=#5A6C86;whiteSpace=wrap;html=1;" vertex="1" parent="1">
          <mxGeometry x="590" y="560" width="171" height="130" as="geometry" />
        </mxCell>
        <mxCell id="r2qKvbFkMg-777UX2yl--109" value="管理用" style="sketch=0;outlineConnect=0;fontColor=#232F3E;gradientColor=none;fillColor=#ED7100;strokeColor=none;dashed=0;verticalLabelPosition=bottom;verticalAlign=top;align=center;html=1;fontSize=12;fontStyle=0;aspect=fixed;pointerEvents=1;shape=mxgraph.aws4.container_1;" vertex="1" parent="1">
          <mxGeometry x="688" y="609.5" width="48" height="31" as="geometry" />
        </mxCell>
        <mxCell id="r2qKvbFkMg-777UX2yl--110" value="メインサイト" style="sketch=0;outlineConnect=0;fontColor=#232F3E;gradientColor=none;fillColor=#ED7100;strokeColor=none;dashed=0;verticalLabelPosition=bottom;verticalAlign=top;align=center;html=1;fontSize=12;fontStyle=0;aspect=fixed;pointerEvents=1;shape=mxgraph.aws4.container_1;" vertex="1" parent="1">
          <mxGeometry x="606" y="609.5" width="48" height="31" as="geometry" />
        </mxCell>
        <mxCell id="r2qKvbFkMg-777UX2yl--112" style="edgeStyle=orthogonalEdgeStyle;rounded=0;orthogonalLoop=1;jettySize=auto;html=1;fillColor=#d5e8d4;strokeColor=#82b366;strokeWidth=4;" edge="1" parent="1" source="r2qKvbFkMg-777UX2yl--15">
          <mxGeometry relative="1" as="geometry">
            <mxPoint x="695" y="390" as="targetPoint" />
            <Array as="points">
              <mxPoint x="695" y="460" />
              <mxPoint x="695" y="460" />
            </Array>
          </mxGeometry>
        </mxCell>
        <mxCell id="r2qKvbFkMg-777UX2yl--114" value="&lt;b&gt;&lt;font style=&quot;font-size: 15px;&quot;&gt;Config&lt;/font&gt;&lt;/b&gt;" style="sketch=0;points=[[0,0,0],[0.25,0,0],[0.5,0,0],[0.75,0,0],[1,0,0],[0,1,0],[0.25,1,0],[0.5,1,0],[0.75,1,0],[1,1,0],[0,0.25,0],[0,0.5,0],[0,0.75,0],[1,0.25,0],[1,0.5,0],[1,0.75,0]];points=[[0,0,0],[0.25,0,0],[0.5,0,0],[0.75,0,0],[1,0,0],[0,1,0],[0.25,1,0],[0.5,1,0],[0.75,1,0],[1,1,0],[0,0.25,0],[0,0.5,0],[0,0.75,0],[1,0.25,0],[1,0.5,0],[1,0.75,0]];outlineConnect=0;fontColor=#232F3E;fillColor=#E7157B;strokeColor=#ffffff;dashed=0;verticalLabelPosition=bottom;verticalAlign=top;align=center;html=1;fontSize=12;fontStyle=0;aspect=fixed;shape=mxgraph.aws4.resourceIcon;resIcon=mxgraph.aws4.config;" vertex="1" parent="1">
          <mxGeometry x="1670" y="-40" width="60" height="60" as="geometry" />
        </mxCell>
        <mxCell id="r2qKvbFkMg-777UX2yl--115" style="edgeStyle=orthogonalEdgeStyle;rounded=0;orthogonalLoop=1;jettySize=auto;html=1;entryX=0;entryY=0.5;entryDx=0;entryDy=0;entryPerimeter=0;fillColor=#d5e8d4;strokeColor=#82b366;strokeWidth=4;" edge="1" parent="1" source="r2qKvbFkMg-777UX2yl--46" target="r2qKvbFkMg-777UX2yl--45">
          <mxGeometry relative="1" as="geometry" />
        </mxCell>
        <mxCell id="r2qKvbFkMg-777UX2yl--117" value="" style="shape=actor;whiteSpace=wrap;html=1;" vertex="1" parent="1">
          <mxGeometry x="444" y="-360" width="70" height="90" as="geometry" />
        </mxCell>
        <mxCell id="r2qKvbFkMg-777UX2yl--118" value="&lt;span style=&quot;font-size: 20px;&quot;&gt;&lt;b&gt;管理者&lt;/b&gt;&lt;/span&gt;" style="text;html=1;align=center;verticalAlign=middle;resizable=0;points=[];autosize=1;strokeColor=none;fillColor=none;" vertex="1" parent="1">
          <mxGeometry x="439" y="-265" width="80" height="40" as="geometry" />
        </mxCell>
        <mxCell id="r2qKvbFkMg-777UX2yl--119" value="" style="sketch=0;outlineConnect=0;fontColor=#232F3E;gradientColor=none;fillColor=#DD344C;strokeColor=none;dashed=0;verticalLabelPosition=bottom;verticalAlign=top;align=center;html=1;fontSize=12;fontStyle=0;aspect=fixed;pointerEvents=1;shape=mxgraph.aws4.role;" vertex="1" parent="1">
          <mxGeometry x="1490" y="-530" width="78" height="44" as="geometry" />
        </mxCell>
        <mxCell id="r2qKvbFkMg-777UX2yl--120" value="" style="sketch=0;outlineConnect=0;fontColor=#232F3E;gradientColor=none;fillColor=#DD344C;strokeColor=none;dashed=0;verticalLabelPosition=bottom;verticalAlign=top;align=center;html=1;fontSize=12;fontStyle=0;aspect=fixed;pointerEvents=1;shape=mxgraph.aws4.role;" vertex="1" parent="1">
          <mxGeometry x="472" y="-314" width="78" height="44" as="geometry" />
        </mxCell>
        <mxCell id="r2qKvbFkMg-777UX2yl--121" value="&lt;b&gt;&lt;font style=&quot;font-size: 15px;&quot;&gt;Region (ap-northeast-1)&lt;/font&gt;&lt;/b&gt;" style="points=[[0,0],[0.25,0],[0.5,0],[0.75,0],[1,0],[1,0.25],[1,0.5],[1,0.75],[1,1],[0.75,1],[0.5,1],[0.25,1],[0,1],[0,0.75],[0,0.5],[0,0.25]];outlineConnect=0;gradientColor=none;html=1;whiteSpace=wrap;fontSize=12;fontStyle=0;container=0;pointerEvents=0;collapsible=0;recursiveResize=0;shape=mxgraph.aws4.group;grIcon=mxgraph.aws4.group_region;strokeColor=#00A4A6;fillColor=none;verticalAlign=top;align=left;spacingLeft=30;fontColor=#147EBA;dashed=1;" vertex="1" parent="1">
          <mxGeometry x="1395" y="163" width="1020" height="720" as="geometry" />
        </mxCell>
        <mxCell id="r2qKvbFkMg-777UX2yl--122" value="&lt;b&gt;&lt;font style=&quot;font-size: 15px;&quot;&gt;VPC&lt;/font&gt;&lt;/b&gt;" style="points=[[0,0],[0.25,0],[0.5,0],[0.75,0],[1,0],[1,0.25],[1,0.5],[1,0.75],[1,1],[0.75,1],[0.5,1],[0.25,1],[0,1],[0,0.75],[0,0.5],[0,0.25]];outlineConnect=0;gradientColor=none;html=1;whiteSpace=wrap;fontSize=12;fontStyle=0;container=0;pointerEvents=0;collapsible=0;recursiveResize=0;shape=mxgraph.aws4.group;grIcon=mxgraph.aws4.group_vpc2;strokeColor=#8C4FFF;fillColor=none;verticalAlign=top;align=left;spacingLeft=30;fontColor=#AAB7B8;dashed=0;" vertex="1" parent="1">
          <mxGeometry x="1435" y="203" width="560" height="600" as="geometry" />
        </mxCell>
        <mxCell id="r2qKvbFkMg-777UX2yl--123" value="&lt;b&gt;&lt;font style=&quot;font-size: 15px;&quot;&gt;Public subnet&lt;/font&gt;&lt;/b&gt;" style="points=[[0,0],[0.25,0],[0.5,0],[0.75,0],[1,0],[1,0.25],[1,0.5],[1,0.75],[1,1],[0.75,1],[0.5,1],[0.25,1],[0,1],[0,0.75],[0,0.5],[0,0.25]];outlineConnect=0;gradientColor=none;html=1;whiteSpace=wrap;fontSize=12;fontStyle=0;container=0;pointerEvents=0;collapsible=0;recursiveResize=0;shape=mxgraph.aws4.group;grIcon=mxgraph.aws4.group_security_group;grStroke=0;strokeColor=#7AA116;fillColor=#F2F6E8;verticalAlign=top;align=left;spacingLeft=30;fontColor=#248814;dashed=0;" vertex="1" parent="1">
          <mxGeometry x="1475" y="243" width="440" height="160" as="geometry" />
        </mxCell>
        <mxCell id="r2qKvbFkMg-777UX2yl--124" value="&lt;b&gt;&lt;font style=&quot;font-size: 15px;&quot;&gt;Private subnet&lt;/font&gt;&lt;/b&gt;" style="points=[[0,0],[0.25,0],[0.5,0],[0.75,0],[1,0],[1,0.25],[1,0.5],[1,0.75],[1,1],[0.75,1],[0.5,1],[0.25,1],[0,1],[0,0.75],[0,0.5],[0,0.25]];outlineConnect=0;gradientColor=none;html=1;whiteSpace=wrap;fontSize=12;fontStyle=0;container=0;pointerEvents=0;collapsible=0;recursiveResize=0;shape=mxgraph.aws4.group;grIcon=mxgraph.aws4.group_security_group;grStroke=0;strokeColor=#00A4A6;fillColor=#E6F6F7;verticalAlign=top;align=left;spacingLeft=30;fontColor=#147EBA;dashed=0;" vertex="1" parent="1">
          <mxGeometry x="1475" y="443" width="440" height="320" as="geometry" />
        </mxCell>
        <mxCell id="r2qKvbFkMg-777UX2yl--125" value="&lt;b&gt;&lt;font style=&quot;font-size: 15px;&quot;&gt;ECS Fargate&lt;/font&gt;&lt;/b&gt;" style="fillColor=none;strokeColor=#FF8000;verticalAlign=top;fontStyle=0;fontColor=#DD3522;whiteSpace=wrap;html=1;" vertex="1" parent="1">
          <mxGeometry x="1499" y="494" width="396" height="229" as="geometry" />
        </mxCell>
        <mxCell id="r2qKvbFkMg-777UX2yl--126" style="edgeStyle=orthogonalEdgeStyle;rounded=0;orthogonalLoop=1;jettySize=auto;html=1;fillColor=#d5e8d4;strokeColor=#82b366;strokeWidth=4;" edge="1" parent="1" source="r2qKvbFkMg-777UX2yl--125" target="r2qKvbFkMg-777UX2yl--132">
          <mxGeometry relative="1" as="geometry">
            <Array as="points">
              <mxPoint x="1905" y="568" />
              <mxPoint x="1905" y="568" />
            </Array>
          </mxGeometry>
        </mxCell>
        <mxCell id="r2qKvbFkMg-777UX2yl--127" value="" style="edgeStyle=orthogonalEdgeStyle;rounded=0;orthogonalLoop=1;jettySize=auto;html=1;strokeWidth=4;fillColor=#dae8fc;strokeColor=#6c8ebf;" edge="1" parent="1" target="r2qKvbFkMg-777UX2yl--148">
          <mxGeometry relative="1" as="geometry">
            <mxPoint x="1652" y="383" as="sourcePoint" />
            <Array as="points">
              <mxPoint x="1655" y="384" />
              <mxPoint x="1655" y="473" />
              <mxPoint x="1564" y="473" />
            </Array>
          </mxGeometry>
        </mxCell>
        <mxCell id="r2qKvbFkMg-777UX2yl--128" value="&lt;b&gt;&lt;font style=&quot;font-size: 15px;&quot;&gt;ALB&lt;/font&gt;&lt;/b&gt;" style="sketch=0;points=[[0,0,0],[0.25,0,0],[0.5,0,0],[0.75,0,0],[1,0,0],[0,1,0],[0.25,1,0],[0.5,1,0],[0.75,1,0],[1,1,0],[0,0.25,0],[0,0.5,0],[0,0.75,0],[1,0.25,0],[1,0.5,0],[1,0.75,0]];outlineConnect=0;fontColor=#232F3E;fillColor=#8C4FFF;strokeColor=#ffffff;dashed=0;verticalLabelPosition=bottom;verticalAlign=top;align=center;html=1;fontSize=12;fontStyle=0;aspect=fixed;shape=mxgraph.aws4.resourceIcon;resIcon=mxgraph.aws4.elastic_load_balancing;" vertex="1" parent="1">
          <mxGeometry x="1622" y="293" width="60" height="60" as="geometry" />
        </mxCell>
        <mxCell id="r2qKvbFkMg-777UX2yl--129" value="&lt;b&gt;&lt;font style=&quot;font-size: 15px;&quot;&gt;S3&lt;/font&gt;&lt;/b&gt;" style="sketch=0;points=[[0,0,0],[0.25,0,0],[0.5,0,0],[0.75,0,0],[1,0,0],[0,1,0],[0.25,1,0],[0.5,1,0],[0.75,1,0],[1,1,0],[0,0.25,0],[0,0.5,0],[0,0.75,0],[1,0.25,0],[1,0.5,0],[1,0.75,0]];outlineConnect=0;fontColor=#232F3E;fillColor=#7AA116;strokeColor=#ffffff;dashed=0;verticalLabelPosition=bottom;verticalAlign=top;align=center;html=1;fontSize=12;fontStyle=0;aspect=fixed;shape=mxgraph.aws4.resourceIcon;resIcon=mxgraph.aws4.s3;" vertex="1" parent="1">
          <mxGeometry x="2273" y="280" width="60" height="60" as="geometry" />
        </mxCell>
        <mxCell id="r2qKvbFkMg-777UX2yl--130" value="&lt;font style=&quot;font-size: 15px;&quot;&gt;&lt;b&gt;OpenSearch&lt;/b&gt;&lt;/font&gt;" style="sketch=0;points=[[0,0,0],[0.25,0,0],[0.5,0,0],[0.75,0,0],[1,0,0],[0,1,0],[0.25,1,0],[0.5,1,0],[0.75,1,0],[1,1,0],[0,0.25,0],[0,0.5,0],[0,0.75,0],[1,0.25,0],[1,0.5,0],[1,0.75,0]];outlineConnect=0;fontColor=#232F3E;fillColor=#8C4FFF;strokeColor=#ffffff;dashed=0;verticalLabelPosition=bottom;verticalAlign=top;align=center;html=1;fontSize=12;fontStyle=0;aspect=fixed;shape=mxgraph.aws4.resourceIcon;resIcon=mxgraph.aws4.elasticsearch_service;" vertex="1" parent="1">
          <mxGeometry x="2273" y="403" width="60" height="60" as="geometry" />
        </mxCell>
        <mxCell id="r2qKvbFkMg-777UX2yl--131" value="&lt;font style=&quot;font-size: 15px;&quot;&gt;&lt;b&gt;ECR&lt;/b&gt;&lt;/font&gt;" style="sketch=0;points=[[0,0,0],[0.25,0,0],[0.5,0,0],[0.75,0,0],[1,0,0],[0,1,0],[0.25,1,0],[0.5,1,0],[0.75,1,0],[1,1,0],[0,0.25,0],[0,0.5,0],[0,0.75,0],[1,0.25,0],[1,0.5,0],[1,0.75,0]];outlineConnect=0;fontColor=#232F3E;fillColor=#ED7100;strokeColor=#ffffff;dashed=0;verticalLabelPosition=bottom;verticalAlign=top;align=center;html=1;fontSize=12;fontStyle=0;aspect=fixed;shape=mxgraph.aws4.resourceIcon;resIcon=mxgraph.aws4.ecr;" vertex="1" parent="1">
          <mxGeometry x="2273" y="538" width="60" height="60" as="geometry" />
        </mxCell>
        <mxCell id="r2qKvbFkMg-777UX2yl--132" value="" style="sketch=0;outlineConnect=0;fontColor=#232F3E;gradientColor=none;fillColor=#8C4FFF;strokeColor=none;dashed=0;verticalLabelPosition=bottom;verticalAlign=top;align=center;html=1;fontSize=12;fontStyle=0;aspect=fixed;pointerEvents=1;shape=mxgraph.aws4.endpoints;" vertex="1" parent="1">
          <mxGeometry x="1963" y="538" width="60" height="60" as="geometry" />
        </mxCell>
        <mxCell id="r2qKvbFkMg-777UX2yl--133" style="edgeStyle=orthogonalEdgeStyle;rounded=0;orthogonalLoop=1;jettySize=auto;html=1;entryX=0;entryY=0.5;entryDx=0;entryDy=0;entryPerimeter=0;fillColor=#d5e8d4;strokeColor=#82b366;strokeWidth=4;" edge="1" parent="1" source="r2qKvbFkMg-777UX2yl--132" target="r2qKvbFkMg-777UX2yl--137">
          <mxGeometry relative="1" as="geometry" />
        </mxCell>
        <mxCell id="r2qKvbFkMg-777UX2yl--134" style="edgeStyle=orthogonalEdgeStyle;rounded=0;orthogonalLoop=1;jettySize=auto;html=1;entryX=0;entryY=0.5;entryDx=0;entryDy=0;entryPerimeter=0;fillColor=#d5e8d4;strokeColor=#82b366;strokeWidth=4;" edge="1" parent="1" source="r2qKvbFkMg-777UX2yl--132" target="r2qKvbFkMg-777UX2yl--131">
          <mxGeometry relative="1" as="geometry">
            <Array as="points">
              <mxPoint x="2055" y="568" />
              <mxPoint x="2055" y="568" />
            </Array>
          </mxGeometry>
        </mxCell>
        <mxCell id="r2qKvbFkMg-777UX2yl--137" value="&lt;font style=&quot;font-size: 15px;&quot;&gt;&lt;b&gt;DynamoDB&lt;/b&gt;&lt;/font&gt;" style="sketch=0;points=[[0,0,0],[0.25,0,0],[0.5,0,0],[0.75,0,0],[1,0,0],[0,1,0],[0.25,1,0],[0.5,1,0],[0.75,1,0],[1,1,0],[0,0.25,0],[0,0.5,0],[0,0.75,0],[1,0.25,0],[1,0.5,0],[1,0.75,0]];outlineConnect=0;fontColor=#232F3E;fillColor=#C925D1;strokeColor=#ffffff;dashed=0;verticalLabelPosition=bottom;verticalAlign=top;align=center;html=1;fontSize=12;fontStyle=0;aspect=fixed;shape=mxgraph.aws4.resourceIcon;resIcon=mxgraph.aws4.dynamodb;" vertex="1" parent="1">
          <mxGeometry x="2114" y="403" width="60" height="60" as="geometry" />
        </mxCell>
        <mxCell id="r2qKvbFkMg-777UX2yl--138" style="edgeStyle=orthogonalEdgeStyle;rounded=0;orthogonalLoop=1;jettySize=auto;html=1;entryX=0;entryY=0.5;entryDx=0;entryDy=0;entryPerimeter=0;fillColor=#d5e8d4;strokeColor=#82b366;strokeWidth=4;" edge="1" parent="1" source="r2qKvbFkMg-777UX2yl--132" target="r2qKvbFkMg-777UX2yl--130">
          <mxGeometry relative="1" as="geometry">
            <Array as="points">
              <mxPoint x="2215" y="568" />
              <mxPoint x="2215" y="433" />
            </Array>
          </mxGeometry>
        </mxCell>
        <mxCell id="r2qKvbFkMg-777UX2yl--139" value="&lt;font style=&quot;font-size: 15px;&quot;&gt;&lt;b&gt;Lambda&lt;/b&gt;&lt;/font&gt;" style="sketch=0;points=[[0,0,0],[0.25,0,0],[0.5,0,0],[0.75,0,0],[1,0,0],[0,1,0],[0.25,1,0],[0.5,1,0],[0.75,1,0],[1,1,0],[0,0.25,0],[0,0.5,0],[0,0.75,0],[1,0.25,0],[1,0.5,0],[1,0.75,0]];outlineConnect=0;fontColor=#232F3E;fillColor=#ED7100;strokeColor=#ffffff;dashed=0;verticalLabelPosition=bottom;verticalAlign=top;align=center;html=1;fontSize=12;fontStyle=0;aspect=fixed;shape=mxgraph.aws4.resourceIcon;resIcon=mxgraph.aws4.lambda;" vertex="1" parent="1">
          <mxGeometry x="2273" y="779" width="60" height="60" as="geometry" />
        </mxCell>
        <mxCell id="r2qKvbFkMg-777UX2yl--140" value="&lt;font style=&quot;font-size: 15px;&quot;&gt;&lt;b&gt;Cognito&lt;/b&gt;&lt;/font&gt;" style="sketch=0;points=[[0,0,0],[0.25,0,0],[0.5,0,0],[0.75,0,0],[1,0,0],[0,1,0],[0.25,1,0],[0.5,1,0],[0.75,1,0],[1,1,0],[0,0.25,0],[0,0.5,0],[0,0.75,0],[1,0.25,0],[1,0.5,0],[1,0.75,0]];outlineConnect=0;fontColor=#232F3E;fillColor=#DD344C;strokeColor=#ffffff;dashed=0;verticalLabelPosition=bottom;verticalAlign=top;align=center;html=1;fontSize=12;fontStyle=0;aspect=fixed;shape=mxgraph.aws4.resourceIcon;resIcon=mxgraph.aws4.cognito;" vertex="1" parent="1">
          <mxGeometry x="2112" y="643" width="59" height="59" as="geometry" />
        </mxCell>
        <mxCell id="r2qKvbFkMg-777UX2yl--141" value="" style="sketch=0;points=[[0,0,0],[0.25,0,0],[0.5,0,0],[0.75,0,0],[1,0,0],[0,1,0],[0.25,1,0],[0.5,1,0],[0.75,1,0],[1,1,0],[0,0.25,0],[0,0.5,0],[0,0.75,0],[1,0.25,0],[1,0.5,0],[1,0.75,0]];outlineConnect=0;fontColor=#232F3E;fillColor=#DD344C;strokeColor=#ffffff;dashed=0;verticalLabelPosition=bottom;verticalAlign=top;align=center;html=1;fontSize=12;fontStyle=0;aspect=fixed;shape=mxgraph.aws4.resourceIcon;resIcon=mxgraph.aws4.shield;" vertex="1" parent="1">
          <mxGeometry x="1665" y="280" width="30" height="30" as="geometry" />
        </mxCell>
        <mxCell id="r2qKvbFkMg-777UX2yl--142" value="&lt;b&gt;&lt;font style=&quot;font-size: 15px;&quot;&gt;CodeDeploy&lt;/font&gt;&lt;/b&gt;" style="sketch=0;points=[[0,0,0],[0.25,0,0],[0.5,0,0],[0.75,0,0],[1,0,0],[0,1,0],[0.25,1,0],[0.5,1,0],[0.75,1,0],[1,1,0],[0,0.25,0],[0,0.5,0],[0,0.75,0],[1,0.25,0],[1,0.5,0],[1,0.75,0]];outlineConnect=0;fontColor=#232F3E;fillColor=#C925D1;strokeColor=#ffffff;dashed=0;verticalLabelPosition=bottom;verticalAlign=top;align=center;html=1;fontSize=12;fontStyle=0;aspect=fixed;shape=mxgraph.aws4.resourceIcon;resIcon=mxgraph.aws4.codedeploy;" vertex="1" parent="1">
          <mxGeometry x="2273" y="643" width="60" height="60" as="geometry" />
        </mxCell>
        <mxCell id="r2qKvbFkMg-777UX2yl--143" value="&lt;b&gt;&lt;font style=&quot;font-size: 15px;&quot;&gt;Nat Gateway&lt;/font&gt;&lt;/b&gt;" style="outlineConnect=0;dashed=0;verticalLabelPosition=bottom;verticalAlign=top;align=center;html=1;shape=mxgraph.aws3.vpc_nat_gateway;fillColor=#F58534;gradientColor=none;" vertex="1" parent="1">
          <mxGeometry x="1775" y="287" width="69" height="72" as="geometry" />
        </mxCell>
        <mxCell id="r2qKvbFkMg-777UX2yl--144" style="edgeStyle=orthogonalEdgeStyle;rounded=0;orthogonalLoop=1;jettySize=auto;html=1;entryX=0;entryY=0.5;entryDx=0;entryDy=0;entryPerimeter=0;fillColor=#d5e8d4;strokeColor=#82b366;strokeWidth=4;" edge="1" parent="1" source="r2qKvbFkMg-777UX2yl--132" target="r2qKvbFkMg-777UX2yl--140">
          <mxGeometry relative="1" as="geometry" />
        </mxCell>
        <mxCell id="r2qKvbFkMg-777UX2yl--145" value="" style="sketch=0;points=[[0,0,0],[0.25,0,0],[0.5,0,0],[0.75,0,0],[1,0,0],[0,1,0],[0.25,1,0],[0.5,1,0],[0.75,1,0],[1,1,0],[0,0.25,0],[0,0.5,0],[0,0.75,0],[1,0.25,0],[1,0.5,0],[1,0.75,0]];outlineConnect=0;fontColor=#232F3E;fillColor=#ED7100;strokeColor=#ffffff;dashed=0;verticalLabelPosition=bottom;verticalAlign=top;align=center;html=1;fontSize=12;fontStyle=0;aspect=fixed;shape=mxgraph.aws4.resourceIcon;resIcon=mxgraph.aws4.ecs;" vertex="1" parent="1">
          <mxGeometry x="1500" y="493" width="40" height="40" as="geometry" />
        </mxCell>
        <mxCell id="r2qKvbFkMg-777UX2yl--146" value="&lt;b&gt;&lt;font style=&quot;font-size: 15px; color: rgb(0, 0, 255);&quot;&gt;Blue&lt;/font&gt;&lt;/b&gt;" style="fillColor=none;strokeColor=#0000FF;verticalAlign=top;fontStyle=0;fontColor=#5A6C86;whiteSpace=wrap;html=1;" vertex="1" parent="1">
          <mxGeometry x="1524" y="563" width="171" height="130" as="geometry" />
        </mxCell>
        <mxCell id="r2qKvbFkMg-777UX2yl--147" value="管理用" style="sketch=0;outlineConnect=0;fontColor=#232F3E;gradientColor=none;fillColor=#ED7100;strokeColor=none;dashed=0;verticalLabelPosition=bottom;verticalAlign=top;align=center;html=1;fontSize=12;fontStyle=0;aspect=fixed;pointerEvents=1;shape=mxgraph.aws4.container_1;" vertex="1" parent="1">
          <mxGeometry x="1622" y="612.5" width="48" height="31" as="geometry" />
        </mxCell>
        <mxCell id="r2qKvbFkMg-777UX2yl--148" value="メインサイト" style="sketch=0;outlineConnect=0;fontColor=#232F3E;gradientColor=none;fillColor=#ED7100;strokeColor=none;dashed=0;verticalLabelPosition=bottom;verticalAlign=top;align=center;html=1;fontSize=12;fontStyle=0;aspect=fixed;pointerEvents=1;shape=mxgraph.aws4.container_1;" vertex="1" parent="1">
          <mxGeometry x="1540" y="612.5" width="48" height="31" as="geometry" />
        </mxCell>
        <mxCell id="r2qKvbFkMg-777UX2yl--149" value="&lt;b&gt;&lt;font style=&quot;font-size: 15px; color: rgb(0, 255, 0);&quot;&gt;Green&lt;/font&gt;&lt;/b&gt;" style="fillColor=none;strokeColor=#00FF00;dashed=1;verticalAlign=top;fontStyle=0;fontColor=#5A6C86;whiteSpace=wrap;html=1;" vertex="1" parent="1">
          <mxGeometry x="1705" y="563" width="171" height="130" as="geometry" />
        </mxCell>
        <mxCell id="r2qKvbFkMg-777UX2yl--150" value="管理用" style="sketch=0;outlineConnect=0;fontColor=#232F3E;gradientColor=none;fillColor=#ED7100;strokeColor=none;dashed=0;verticalLabelPosition=bottom;verticalAlign=top;align=center;html=1;fontSize=12;fontStyle=0;aspect=fixed;pointerEvents=1;shape=mxgraph.aws4.container_1;" vertex="1" parent="1">
          <mxGeometry x="1803" y="612.5" width="48" height="31" as="geometry" />
        </mxCell>
        <mxCell id="r2qKvbFkMg-777UX2yl--151" value="メインサイト" style="sketch=0;outlineConnect=0;fontColor=#232F3E;gradientColor=none;fillColor=#ED7100;strokeColor=none;dashed=0;verticalLabelPosition=bottom;verticalAlign=top;align=center;html=1;fontSize=12;fontStyle=0;aspect=fixed;pointerEvents=1;shape=mxgraph.aws4.container_1;" vertex="1" parent="1">
          <mxGeometry x="1721" y="612.5" width="48" height="31" as="geometry" />
        </mxCell>
        <mxCell id="r2qKvbFkMg-777UX2yl--152" style="edgeStyle=orthogonalEdgeStyle;rounded=0;orthogonalLoop=1;jettySize=auto;html=1;fillColor=#d5e8d4;strokeColor=#82b366;strokeWidth=4;" edge="1" parent="1" source="r2qKvbFkMg-777UX2yl--125">
          <mxGeometry relative="1" as="geometry">
            <mxPoint x="1810" y="393" as="targetPoint" />
            <Array as="points">
              <mxPoint x="1810" y="463" />
              <mxPoint x="1810" y="463" />
            </Array>
          </mxGeometry>
        </mxCell>
        <mxCell id="r2qKvbFkMg-777UX2yl--153" style="edgeStyle=orthogonalEdgeStyle;rounded=0;orthogonalLoop=1;jettySize=auto;html=1;entryX=0;entryY=0.5;entryDx=0;entryDy=0;entryPerimeter=0;fillColor=#d5e8d4;strokeColor=#82b366;strokeWidth=4;" edge="1" parent="1" source="r2qKvbFkMg-777UX2yl--140" target="r2qKvbFkMg-777UX2yl--139">
          <mxGeometry relative="1" as="geometry" />
        </mxCell>
        <mxCell id="r2qKvbFkMg-777UX2yl--154" style="edgeStyle=orthogonalEdgeStyle;rounded=0;orthogonalLoop=1;jettySize=auto;html=1;entryX=0.5;entryY=0;entryDx=0;entryDy=0;entryPerimeter=0;fillColor=#f8cecc;strokeColor=#b85450;strokeWidth=4;" edge="1" parent="1" source="r2qKvbFkMg-777UX2yl--24" target="r2qKvbFkMg-777UX2yl--129">
          <mxGeometry relative="1" as="geometry" />
        </mxCell>
        <mxCell id="r2qKvbFkMg-777UX2yl--155" style="edgeStyle=orthogonalEdgeStyle;rounded=0;orthogonalLoop=1;jettySize=auto;html=1;entryX=0.5;entryY=0;entryDx=0;entryDy=0;entryPerimeter=0;fillColor=#f8cecc;strokeColor=#b85450;strokeWidth=4;" edge="1" parent="1" target="r2qKvbFkMg-777UX2yl--128">
          <mxGeometry relative="1" as="geometry">
            <mxPoint x="684" y="50" as="sourcePoint" />
            <Array as="points">
              <mxPoint x="684" y="50" />
              <mxPoint x="1652" y="50" />
            </Array>
          </mxGeometry>
        </mxCell>
        <mxCell id="r2qKvbFkMg-777UX2yl--157" value="" style="endArrow=classic;html=1;rounded=0;fillColor=#dae8fc;strokeColor=#6c8ebf;strokeWidth=4;" edge="1" parent="1">
          <mxGeometry width="50" height="50" relative="1" as="geometry">
            <mxPoint x="1950" y="-570" as="sourcePoint" />
            <mxPoint x="1800" y="-570" as="targetPoint" />
          </mxGeometry>
        </mxCell>
        <mxCell id="r2qKvbFkMg-777UX2yl--158" value="クライアント通信" style="edgeLabel;html=1;align=center;verticalAlign=middle;resizable=0;points=[];" vertex="1" connectable="0" parent="r2qKvbFkMg-777UX2yl--157">
          <mxGeometry x="-0.2887" y="-2" relative="1" as="geometry">
            <mxPoint x="-21" as="offset" />
          </mxGeometry>
        </mxCell>
        <mxCell id="r2qKvbFkMg-777UX2yl--159" value="" style="endArrow=classic;html=1;rounded=0;fillColor=#d5e8d4;strokeColor=#82b366;strokeWidth=4;" edge="1" parent="1">
          <mxGeometry width="50" height="50" relative="1" as="geometry">
            <mxPoint x="1950" y="-531" as="sourcePoint" />
            <mxPoint x="1800" y="-531" as="targetPoint" />
          </mxGeometry>
        </mxCell>
        <mxCell id="r2qKvbFkMg-777UX2yl--160" value="システム通信" style="edgeLabel;html=1;align=center;verticalAlign=middle;resizable=0;points=[];" vertex="1" connectable="0" parent="r2qKvbFkMg-777UX2yl--159">
          <mxGeometry x="-0.2887" y="-2" relative="1" as="geometry">
            <mxPoint x="-21" as="offset" />
          </mxGeometry>
        </mxCell>
        <mxCell id="r2qKvbFkMg-777UX2yl--161" value="" style="endArrow=classic;html=1;rounded=0;fillColor=#f5f5f5;strokeColor=#000000;strokeWidth=4;" edge="1" parent="1">
          <mxGeometry width="50" height="50" relative="1" as="geometry">
            <mxPoint x="1950" y="-494" as="sourcePoint" />
            <mxPoint x="1800" y="-494" as="targetPoint" />
          </mxGeometry>
        </mxCell>
        <mxCell id="r2qKvbFkMg-777UX2yl--162" value="管理通信" style="edgeLabel;html=1;align=center;verticalAlign=middle;resizable=0;points=[];" vertex="1" connectable="0" parent="r2qKvbFkMg-777UX2yl--161">
          <mxGeometry x="-0.2887" y="-2" relative="1" as="geometry">
            <mxPoint x="-21" as="offset" />
          </mxGeometry>
        </mxCell>
        <mxCell id="r2qKvbFkMg-777UX2yl--163" value="" style="endArrow=classic;html=1;rounded=0;fillColor=#f8cecc;strokeColor=#b85450;strokeWidth=4;" edge="1" parent="1">
          <mxGeometry width="50" height="50" relative="1" as="geometry">
            <mxPoint x="1950" y="-455" as="sourcePoint" />
            <mxPoint x="1800" y="-455" as="targetPoint" />
          </mxGeometry>
        </mxCell>
        <mxCell id="r2qKvbFkMg-777UX2yl--164" value="DR 通信" style="edgeLabel;html=1;align=center;verticalAlign=middle;resizable=0;points=[];" vertex="1" connectable="0" parent="r2qKvbFkMg-777UX2yl--163">
          <mxGeometry x="-0.2887" y="-2" relative="1" as="geometry">
            <mxPoint x="-21" as="offset" />
          </mxGeometry>
        </mxCell>
        <mxCell id="r2qKvbFkMg-777UX2yl--166" value="" style="endArrow=classic;startArrow=classic;html=1;rounded=0;exitX=1;exitY=0.75;exitDx=0;exitDy=0;exitPerimeter=0;entryX=0.783;entryY=0.843;entryDx=0;entryDy=0;entryPerimeter=0;fillColor=#f8cecc;strokeColor=#b85450;strokeWidth=4;" edge="1" parent="1" source="r2qKvbFkMg-777UX2yl--45" target="r2qKvbFkMg-777UX2yl--156">
          <mxGeometry width="50" height="50" relative="1" as="geometry">
            <mxPoint x="1610" y="720" as="sourcePoint" />
            <mxPoint x="1660" y="670" as="targetPoint" />
          </mxGeometry>
        </mxCell>
        <mxCell id="r2qKvbFkMg-777UX2yl--167" style="edgeStyle=orthogonalEdgeStyle;rounded=0;orthogonalLoop=1;jettySize=auto;html=1;entryX=0.25;entryY=0;entryDx=0;entryDy=0;entryPerimeter=0;strokeWidth=4;" edge="1" parent="1" source="r2qKvbFkMg-777UX2yl--118" target="r2qKvbFkMg-777UX2yl--21">
          <mxGeometry relative="1" as="geometry" />
        </mxCell>
      </root>
    </mxGraphModel>
  </diagram>
</mxfile>
